<svg version="1.0" xmlns="http://www.w3.org/2000/svg"
 width="200" height="200" viewBox="0 0 300 300"
 preserveAspectRatio="xMidYMid meet">

<g transform="translate(0.000000,300.000000) scale(0.100000,-0.100000)"
fill="#108e43" stroke="none">
<path d="M1350 2689 c-198 -10 -364 -52 -558 -140 -35 -16 -65 -29 -68 -29
-13 0 -194 -119 -247 -163 -240 -195 -383 -422 -437 -690 -19 -96 -14 -298 10
-402 23 -100 103 -277 169 -374 109 -160 301 -330 469 -415 30 -15 56 -25 59
-22 3 2 -4 33 -15 68 -11 35 -23 77 -26 93 -26 140 -37 170 -70 204 -65 69
-142 199 -186 312 -69 182 -79 474 -22 664 16 51 83 208 105 245 92 154 245
300 396 378 117 61 190 86 307 106 427 75 858 -124 1075 -496 23 -39 55 -107
71 -152 215 -586 -97 -1204 -693 -1371 -48 -14 -104 -25 -123 -25 l-36 0 0 63
c0 35 6 104 14 153 16 99 30 197 46 324 6 47 17 128 25 180 8 52 19 133 25
180 6 47 15 114 20 150 5 36 12 87 15 113 4 27 12 50 18 51 7 2 41 12 77 21
36 10 83 23 105 30 33 11 45 11 67 -1 15 -8 43 -14 62 -14 57 0 71 38 70 180
-2 134 -12 166 -56 184 -29 12 -38 12 -83 -6 -46 -19 -119 -39 -205 -58 -19
-4 -98 -24 -175 -43 -310 -80 -400 -99 -438 -93 -64 10 -157 -42 -157 -88 0
-48 99 -222 143 -251 20 -13 29 -12 82 9 33 13 83 27 112 31 l51 7 -4 -44 c-3
-24 -11 -88 -19 -143 -7 -55 -19 -138 -25 -185 -14 -104 -27 -196 -45 -315 -8
-49 -19 -135 -25 -190 -17 -147 -28 -194 -55 -243 -30 -53 -33 -112 -7 -134
68 -60 397 -89 600 -53 160 28 328 83 467 153 162 80 367 251 476 397 93 123
166 283 199 433 24 108 27 319 6 419 -75 350 -362 677 -751 853 -247 111 -508
156 -815 139z"/>
</g>
</svg>
